<svg viewBox="0 0 600 600" xmlns="http://www.w3.org/2000/svg">
<defs>
  <radialGradient id="globe-ocean" cx="42%" cy="38%" r="52%">
    <stop offset="0%" stop-color="#c8e8f4"/>
    <stop offset="60%" stop-color="#a0d4e8"/>
    <stop offset="100%" stop-color="#78b8d0"/>
  </radialGradient>
  <radialGradient id="globe-land" cx="40%" cy="35%" r="60%">
    <stop offset="0%" stop-color="#f4c098"/>
    <stop offset="100%" stop-color="#e8a070"/>
  </radialGradient>
  <radialGradient id="globe-shine" cx="35%" cy="30%" r="50%">
    <stop offset="0%" stop-color="#fff" stop-opacity="0.18"/>
    <stop offset="100%" stop-color="#fff" stop-opacity="0"/>
  </radialGradient>
  <filter id="gshadow">
    <feDropShadow dx="0" dy="8" stdDeviation="20" flood-color="#4a3020" flood-opacity="0.12"/>
  </filter>
  <clipPath id="globe-clip"><circle cx="300" cy="300" r="270"/></clipPath>
</defs>
<!-- Shadow -->
<ellipse cx="300" cy="560" rx="200" ry="18" fill="#c8b898" opacity="0.15"/>
<!-- Ocean -->
<circle cx="300" cy="300" r="270" fill="url(#globe-ocean)" filter="url(#gshadow)"/>
<!-- Grid lines -->
<g clip-path="url(#globe-clip)" stroke="#fff" stroke-width="0.6" fill="none" opacity="0.2">
  <ellipse cx="300" cy="300" rx="270" ry="80"/>
  <ellipse cx="300" cy="300" rx="270" ry="160"/>
  <ellipse cx="300" cy="300" rx="270" ry="230"/>
  <ellipse cx="300" cy="300" rx="80" ry="270"/>
  <ellipse cx="300" cy="300" rx="160" ry="270"/>
  <ellipse cx="300" cy="300" rx="230" ry="270"/>
</g>
<!-- Land masses -->
<g clip-path="url(#globe-clip)" fill="url(#globe-land)" stroke="#d0885a" stroke-width="0.3" stroke-linejoin="round">
  <path d="M238.1,562.8 239.4,563.1 241.1,563.5 242.6,563.8 244.2,564.1 245.8,564.5 246.7,564.6 248.1,564.9 249.5,565.2 250.9,565.4 252,565.5 253.1,565.7 253.7,565.7 254.7,565.8 255.9,566 256.5,566 256.2,565.7 256.4,565.6 258.3,565.9 259.6,566.2 261.3,566.5 262.8,566.7 264.5,567 266,567.2 267.2,567.3 267.1,567.1 268.3,567.1 269.5,567.1 270.9,567.1 272.6,567.1 273.7,567.1 274.9,567.1 276,567 277.7,567.2 279,567.1 279.9,566.9 281.6,567 283,566.9 283.1,566.7 284.5,566.6 285.9,566.5 287.7,566.4 289.5,566.4 291.2,566.5 293,566.6 294.6,566.8 294.9,567.1 296.6,567.4 297.7,567.6 299.9,567.6 301.1,567.8 302.5,568 304.2,568 305.7,567.8 307.3,567.6 308.9,567.7 310.6,567.7 312.2,567.7 313.9,567.7 315.7,567.6 316.3,568.1 316.1,568.3 315.6,568.5 313.8,568.7 312.4,568.9 312.3,569 314.1,568.9 313.6,569.1 312.6,569.2 311.6,569.4 312.5,569.4 314.1,569.4 315.9,569.3 317,569.1 317.8,569 318.9,568.8 320.2,568.6 320.9,568.5 322.3,568.2 323.4,568.1 325.2,568 326.9,567.8 328.7,567.6 330,567.3 331,567.1 332.6,566.7 334.6,566.4 336.3,566.2 337.8,565.9 339,565.6 340.5,565.4 342,565.3 343.7,565 345.5,564.8 347.2,564.6 348.9,564.2 351.1,563.5 351.2,563.7 351,564 351.9,563.9 353.2,563.7 355,563.4 356.4,563.2 357.8,563 359,562.8 360.1,562.6 360.7,562.5 362.4,562.2 363.9,561.9 365.6,561.5 366.7,561.3 368.6,560.8 370.2,560.3 372,559.8 375.9,558.6 376.4,558.6 376.7,558.6 376.5,558.7 376.3,558.9 377.5,558.6 378.6,558.3 380.3,557.8 382.1,557.2 384,556.6 385.8,556Z"/>
  <path d="M331.2,543.4 326.5,543.7 326.7,542.6 327.4,541.8 327.7,541.3 329.5,541.9 332.3,542 332.3,542.4 331.2,543.4Z"/>
  <path d="M254.7,428 255.6,433 256.9,435 256.6,436.9 255.8,438.1 254.2,435.6 253.4,436.8 254.4,439.8 254.1,441.5 253,442.4 252.9,445.7 251.5,450.2 249.8,455.5 247.8,462.5 246.7,467.6 245.3,471.7 242.1,472.4 238.7,473.7 236.2,472.6 232.7,471.1 231.3,469.1 230.5,465.8 228.7,462.7 227.9,460 228.3,457.3 230.1,456.8 230,455.5 231.7,452.7 231.8,450.3 230.6,448.3 229.5,445.8 228.8,442.1 230.1,440 230.5,437.5 232.6,437.5 235,436.8 236.6,436.2 238.5,436.3 240.9,434.1 244.4,431.8 245.6,429.8 244.9,428 246.8,428.6 249.1,425.8 249.1,423.3 250.5,421.5 252.1,423.4 253.4,425.2 254.7,428Z"/>
  <path d="M560.6,369.7 559.9,372.7 560.6,370.3 560.3,371.7 560,372.9 559.4,374.9 558.4,378.4 514.8,463.6 516.4,461.5 518.1,459.1 515.9,462 514.7,463.6 516.6,461.1 518.2,458.8 519.8,456.7 521.6,454 518.7,458 517.3,459.8 514.9,463.1 515.2,462.3 516.6,460.4 517.8,458.4 518.1,457.6 518.9,456.5 518.9,455.6 518.2,456.2 518.1,455.3 515.5,457.4 512.8,460 510.3,462.3 508.9,462.9 506,465.8 504,467.4 502.5,469.4 500.9,471.2 499.3,472 498,472.9 496.7,473 495.1,474.1 493.7,474.8 491.3,477.2 490.8,477.3 489.2,478.6 487.5,480.1 486,480.6 484.6,481.2 483.8,479.9 483,479.7 484.3,477.8 485.7,476.9 486.5,475.9 487.2,474.7 489,472.2 489.9,470.3 490.7,467.1 491.5,465.2 492.7,463.1 492.9,461.1 493.4,460.1 493.1,459 494.2,456.2 494.1,453.8 494.5,452.3 494.8,453.5 495.6,450.3 496.3,451 496.4,452.2 497.2,450.2 497.3,447.7 497.5,446.6 497.4,445.6 498.6,443.3 499.5,442.2 500.6,440.1 501.2,437.9 503.3,434.7 502.4,437.6 504.4,434.5 506.9,432.4 508.7,430.3 511.1,428.1 512.3,427.3 512.8,427.6 515.2,425.3 516.7,424.2 517.4,423.2 518.1,422.6 519.3,422.1 522,419.9 523.8,417.5 525.1,415.1 527,412.4 527.6,410.7 528.3,408.4 530.8,404.1 530.6,407.3 531.7,406 531.6,404.4 532.8,402 533.4,402.4 534.5,399.1 536.1,396.4 537,394.5 538.2,393.2 538.5,392 539.2,392 539.5,390.9 540.5,389.8 541.5,388.7 542.3,389.9 542.6,391.8 543.6,391.2 544.5,390.9 544.8,388.7 546.4,384.8 547.4,383.1 547.4,382.2 548.6,379.2 549.9,377 550.5,377 551.9,375.2 552.3,373 551.6,372.4 552.5,371.1 553.2,371.5 553.5,372.6 554.3,372.8 554.8,372 555.2,372.7 556.2,370.7 556.5,370.7 556.9,369.6 556.9,371.2 556.1,373.9 555.3,376.1 554.9,376.6 554.6,378.2 553.7,380.7 552.7,383.3 552.5,384.4 552.7,385.9 553.1,386.4 553.2,387.3 553.1,389 553.4,388.6 553.5,389.1 553.2,390.3 553.5,390.6 554.4,388.4 555.3,385.9 556,383.8 556.8,381.2 558,377.4 558.5,375.5 558.9,374.1 559.5,371.8 560.4,368.3 560.7,367.2 560.9,365.9 561.6,363.3 562.2,360.6 562.5,359.3 563.1,357.2 562.8,359.1 562.3,361.8 562.3,362 561.9,363.8 561.6,365.6 561,368 560.6,369.7Z"/>
  <path d="M531.7,380 530.8,380.5 528.1,378.8 530.5,377 531.5,377.8 532.1,378.8 531.7,380Z"/>
  <path d="M539.8,375.6 537.9,377.5 537.7,377.1 538.1,375.5 539.5,372.4 541.7,369.5 542.1,368.4 543.9,366.4 545.2,365.5 545.9,364.6 546.5,364.7 545.6,366.3 543.4,369.4 541.6,371.6 539.8,375.6Z"/>
  <path d="M526.4,373.5 527.2,374.3 528.7,373.3 529.1,374.9 526.1,377 524.3,378.3 523,378.8 524.2,375.9 525.6,375.3 526.4,373.5Z"/>
  <path d="M538,368.2 537.3,370.9 533.9,373.7 530.9,374.6 531.1,372.9 533.1,371.2 534.3,371.9 535.8,370.8 538,368.2Z"/>
  <path d="M501.2,376.7 507,375.3 507.8,373.3 513,373.7 513.7,376.2 517.7,375.5 520.7,376.9 517.4,379.7 514.6,379 512.1,380 509.2,380.7 506.5,380.8 503.2,380.2 501,380.4 499.7,381.3 494.1,381.1 493.7,379.4 490.8,379.9 493.4,375 497.2,374.2 499.6,375.2 500.9,375.2 501.2,376.7Z"/>
  <path d="M558.9,346.5 557.9,350.2 558.2,346.9 558.6,345.1 559,343.3 559.2,344.4 558.9,346.5Z"/>
  <path d="M548.5,342.7 547.8,344.6 546.5,344.6 546.3,342.9 548.2,341.5 548.5,342.7Z"/>
  <path d="M554.1,337.4 554.5,340.4 553.2,339.5 551.9,340.1 550.9,341.1 549.7,341.7 550.3,338.9 552.4,337.3 554.1,337.4Z"/>
  <path d="M559.7,324.3 559.8,331.3 560.9,332.8 562.1,327 563.4,322.9 564.3,321.9 565,322.4 565.6,323.2 566.4,322.8 567.4,323.8 568.2,324.1 568.3,325.6 568.3,327.2 568.1,329.7 568.3,330.5 568,332.6 567.8,334.2 567.4,336.9 566,346.5 566.2,344.7 566.7,341.4 566.5,341 565.9,343.3 565.4,345.5 564.9,348.6 564.2,351.1 564,351 563.3,352.1 563.2,349.5 562.5,349.8 562.1,351.3 560.9,353 561.8,348.8 562.6,346.8 562.9,342.3 562.9,339.1 561.1,337.5 560.2,338.1 558.6,335.7 558.1,338.3 557.5,339.1 557.3,337.7 557.4,335.8 556.5,334.4 558.1,331.5 559,330.8 558.9,329.7 556.9,331.4 556.4,329.1 555.1,329.3 554.5,327.6 556.6,324.9 557.3,322.8 559.5,322.8 559.7,324.3Z"/>
  <path d="M545.1,322.8 543.6,328.2 542,329.9 540,330.1 536.3,332.1 534.3,333.7 533.9,337.3 535.9,340.4 537.2,337.7 541.3,334.2 541.1,336.3 540.2,336.1 539.2,339.3 537.2,342 539,346.8 538.5,348.5 540.1,352.7 539.9,355.7 538.6,357.6 537.9,356.4 539.2,352.2 537,355 536.5,354.1 536.9,352.2 535.4,350.3 535.8,345.8 534.2,347.9 534.1,353.1 533.7,359.5 532.2,360.8 531.3,359.9 532.3,355.5 532.2,351.3 531.2,351.7 530.6,348.9 531.7,345.5 532.2,341.8 533.4,334.4 533.9,332.3 535.8,328 537.6,328.5 540.4,327.8 542.8,326.4 544.7,322 545.1,322.8Z"/>
  <path d="M551.5,320.2 551.4,324.3 550.5,324.4 550.3,327.4 551,329.3 550.5,330.2 549.8,327.7 549.2,322.2 549.5,318.4 550,316.3 550.2,318.7 551.3,318.5 551.5,320.2Z"/>
  <path d="M492.6,375 488.9,376.1 486.4,373.1 482.2,370.5 480.9,368.1 478.3,365.1 476.7,362.1 474,356.4 470.9,353.3 469.8,349.6 468.4,346.3 465,344.1 462.9,340.5 460,338.5 455.7,334.2 455.3,331.9 457.7,331.6 463.6,331.4 467.1,335.2 470.1,337.8 472.2,339.2 475.7,343.4 479.4,342.7 482.3,345.1 484.4,348.5 487,349.9 485.6,354 487.6,355.1 488.8,354.9 489.3,357.9 490.4,360.1 492.8,359.9 494.3,362.3 493.2,368.1 492.6,375Z"/>
  <path d="M528.5,328.8 531.4,331.9 528.5,333.7 527.7,337.1 527.7,341.2 525.2,345.3 525,349.8 523.7,357.1 523.4,355.6 520.2,358.8 519.3,356.4 517.4,356.9 516,355.9 512.6,358.7 511.6,356.9 509.7,357.7 507.2,358 507,352.1 505.5,351.3 504,347.9 503.6,344 503.9,339.7 505.7,336.1 507.9,337 510.2,335.4 510.7,331.3 511.9,330 515.3,327.9 517.1,323.6 518.3,320.2 519.3,318.1 521.4,314.7 523.1,310.7 524.1,306.6 525.1,306.2 526.6,308 527,309.9 528.7,310.5 530.8,311.1 530.8,312.9 529.2,313.9 529.8,315.9 528.1,318.2 526.9,323 528.9,326.5 528.5,328.8Z"/>
  <path d="M544.7,289.5 545.3,292.5 545.7,295 545.6,299.5 544.3,295.3 543.7,298.1 544.7,301.1 544.3,303.6 541.7,302.2 540.8,299.2 541.2,296.7 539.6,295.2 539.2,297.5 538.2,297.8 536.9,301.1 536.3,300 536.7,295.7 537.9,293.7 538.8,291.4 539.8,293.1 541.2,291 541.3,288.8 542.6,287.9 542,284.4 543.8,285.7 544.3,287.9 544.7,289.5Z"/>
  <path d="M397.1,336.6 393.4,338 391.1,334.5 390.1,327.9 391.6,320.1 394.8,322.4 397,325.5 399.4,330.2 398.9,335.1 397.1,336.6Z"/>
  <path d="M538.7,283.6 538.3,285.5 538,288.7 537.6,290.4 535.8,287.9 536.1,286.5 536.4,284.9 536.1,282 537.2,281.1 537.4,284.4 538.2,279.2 538.7,283.6Z"/>
  <path d="M527.2,293.8 524.5,299.5 525.3,295.8 526.7,292.2 527.6,288.4 528.1,283.3 529.1,286.9 528,290.1 527.2,293.8Z"/>
  <path d="M533,278.5 534.6,279.3 535.9,278.6 536.2,280.5 535.6,282.9 534.5,285 534,282.9 533.8,280.5 533,278.5Z"/>
  <path d="M540.2,273.4 541.7,278.2 540,277.8 540.3,279.3 541.3,281.9 540.5,283.4 539.9,280.2 539.2,280.3 538.4,277.7 539.6,277.5 539.3,275.7 537.4,272.9 539.3,272 540.2,273.4Z"/>
  <path d="M531.2,273.5 531.4,277.7 530,275.9 528.1,272.9 530.1,272.2 531.2,273.5Z"/>
  <path d="M524.6,249 526.3,249.7 526.6,248.2 527.1,249.3 527.3,251.3 528.9,254.2 529.4,258.2 528.5,260.3 529.1,264.1 530.4,267.5 531.6,267.5 532.5,266.5 535.6,267.7 535.9,270.3 536.8,271 537,273.2 535,271.8 533.7,269.8 533.5,271.7 531.6,269.7 529.8,271.3 528.4,270.8 528.1,268.9 528.6,267.4 527.7,266.6 527.8,268.4 526,266.3 525.2,264.5 524.1,260.2 525.4,261.3 523.8,254.1 523.3,249.6 524.6,249Z"/>
  <path d="M496.9,258.7 495,261.7 492.2,261 491.1,257.1 492,254.6 494.8,252.4 496.5,252 497.6,253.5 496.9,255.9 496.9,258.7Z"/>
  <path d="M518.1,230 518.5,234.1 516,230.9 514.6,227.7 514.2,222.8 514.5,218.7 516,219.6 516.7,222.4 518.1,230Z"/>
  <path d="M515.5,168.9 516.5,170.2 517.4,173.1 516.1,172.2 516.2,173.7 517.3,176.3 515.8,175.8 514.7,173.8 513.8,170.9 514.8,170.8 514.1,168.8 515.5,168.9Z"/>
  <path d="M205.8,199.2 203,200.7 203,201.6 203,202 199,203.3 197.5,202.5 197.2,200.6 198.8,200.7 199.1,200.7 199.9,199.7 202.3,200.1 205.8,199.2Z"/>
  <path d="M170.2,193.5 171.4,195.3 173.9,195.5 176.1,196.2 175.8,196.9 177.7,196.7 176.9,197.9 172.1,197.5 172.4,196.8 168.9,195.2 170.2,193.5Z"/>
  <path d="M151.4,177.8 148.8,180.8 148.6,182.2 147,184.2 145.8,182.1 144.6,181.3 142.1,178.2 143.6,176.2 146.4,177.4 149.2,177.6 151.4,177.8Z"/>
  <path d="M142.6,161.4 142.3,164.6 138.9,169.8 138,169.2 136.3,170.3 136,168.9 138.8,164.1 139.7,161.7 140.8,162.3 142.6,161.4Z"/>
  <path d="M512.6,151.3 514.6,154.6 516,156.4 517.6,159.6 518,162.6 516.7,164.6 518.4,170.5 516.7,169.6 514.8,166.7 513.5,169.3 513.3,172.3 511.9,173.5 515,175.5 518.2,183 518.3,185.4 516.8,184.3 515,180.3 513.5,179.8 511.3,177.4 511.8,175.2 510.9,172.2 510.8,169.2 509.9,165.8 511.3,162.8 512.9,162.5 509,154.7 510.9,155.9 509.2,150.7 508.5,148.7 505.4,143.6 501.9,139.7 500.3,137.1 500.3,135.5 504.8,139.9 507.2,142.9 509.6,147.4 512.6,151.3Z"/>
  <path d="M145.7,158 143.1,160.8 142.6,159.6 143.7,156.9 145.1,155.6 147.4,154.5 145.7,158Z"/>
  <path d="M492.6,123.6 493.5,123.7 492.3,121.7 496,125.2 496.4,127.5 499.2,131.7 496.4,130.7 499.5,135 498.9,136.1 495.7,132.7 493.6,129.6 494,128.5 489.7,123.5 487.2,120.7 491.2,123.1 492.6,123.6Z"/>
  <path d="M469.8,102.9 476.4,107.5 474.8,107.7 479.6,112.7 483.5,115.2 485.9,117.4 483.6,116.1 485.9,119.2 483,116.6 479.7,113.4 475.9,110.1 473.3,107.5 468.5,103.4 464.7,101 459.7,96.9 458.3,95 456.4,93.9 456,93.2 458.6,94.9 462.3,97.4 466,100.3 469.8,102.9Z"/>
  <path d="M148.1,110.6 144.1,111.3 143.2,109.8 147.7,107.1 150.7,103.6 154.9,102.2 157.3,101.3 158.3,101.7 157.3,104.2 154.3,106 152.1,108.3 148.1,110.6Z"/>
  <path d="M187.9,111.5 184.5,113.9 184.3,111.5 185.2,110.1 188.8,109.8 187.9,111.5Z"/>
  <path d="M174.8,93.8 169.7,96.3 171.4,96.5 172.6,97.2 169.4,99.4 165.2,101.5 166.3,102.4 163.1,106.9 163.5,107.8 160.6,111.8 159.7,113.3 160.9,114.7 158.7,116.7 157,117.3 156,119.3 152.9,120.5 151,119.5 147.7,119.3 147.7,118.3 145.3,119.4 144.4,118.4 142.3,119.2 142.3,118.1 147.6,115.7 149.4,115.6 148,114 149,112.5 151.3,112.2 152.5,110.1 154.9,108.2 156.5,109.5 158.6,107.7 159.9,105.4 159.1,104 159.8,103.1 161.7,101.9 162.3,100.9 160.1,102 163.4,99.1 164.7,97.3 168.8,94.5 172.6,92.7 173.2,93.4 174.8,93.8Z"/>
  <path d="M196.1,68.4 193.3,69.6 191.1,71.7 187.2,72.7 183,72.8 181.9,72.7 182,71.7 182.4,69.5 184.5,69.1 186.1,67 187.3,67.5 188.5,66.8 189.1,65.3 192,64.4 193,64.8 190.5,66.9 193.3,66.6 192.6,67.8 195.6,67.4 196.1,68.4Z"/>
  <path d="M383.9,44 384.6,43.9 385.6,44 387.9,44.8 388.1,44.8 385.7,44 383.3,43.2 394.9,47.2 393.6,46.7 394.1,47 395.7,47.6 395,47.4 393.4,46.8 395.5,47.6 396.8,48.1 398.9,48.9 398.9,48.9 398.9,48.9 401.8,50.1 402.8,50.6 403.9,51 406.4,51.9 406.9,52.1 408.3,52.7 409.5,53.2 410.6,53.8 416.2,56.5 417.4,57.1 421.4,59.2 425,61.2 427,62.2 425.5,61.7 430.4,64.8 429.2,64.3 431.5,65.7 431.8,66.2 434.5,67.8 439,70.6 440.6,71.5 440.8,71.2 446.5,74.6 447.1,75.3 450.6,77.5 452,78.3 454.8,80.8 459.3,83.9 460.8,85.6 464.7,88.5 468.7,92.1 466.3,90.5 461,86.9 452.7,81.6 447.2,77.9 444.6,75.9 442.7,74.8 441.3,73.3 435.6,69.4 430.7,66.2 426.6,63.6 420.5,60.5 421.5,61.3 425.1,63.2 430.7,66.9 426,64.9 428.2,67 435.6,72.1 437.9,73 439.4,74.9 439.9,76.2 437,74.5 436.4,75.1 438.4,77 437.3,78.5 437.6,81.2 444,88.3 450.7,97.4 452.2,96.7 454.8,98.2 456.2,98.1 454.7,96.3 455.5,95.7 460.3,97.8 463.5,100.2 466.8,103.8 471,107.5 476.4,112.8 480.5,118.7 482.6,121.3 485.5,126.3 488.1,131.4 489.4,134.1 489.9,137.3 489.4,137.9 487.2,136.7 488,140.4 488.8,141.8 488.2,141.9 488.7,143.5 489.3,145 491.5,147.6 491.4,148.9 491.7,149.7 492.1,151.1 491.7,152.3 491.8,153.7 493,155.4 493.1,155.9 494.1,156.2 496.1,157.4 500.4,161.2 502.5,163.5 505.5,168 506.4,170.5 505.6,172.1 505.5,174.5 504.3,175.7 502.8,173.6 501.2,170.4 497.9,166.7 498.6,165.4 495.3,162.7 494.1,162.3 494.4,163.2 494.1,163.8 493.6,163.1 492.9,162.9 492.1,162.5 491.4,160.6 491.4,159.9 490.8,159.3 489.7,157 489.2,156.4 488,156.5 486.5,155.9 485,158.2 485.1,160.6 483.9,162.6 483.6,160.3 482.2,159 481.8,155.7 479.5,154.2 478.9,156.2 478.7,159.8 479.3,162.8 477.5,163.8 477.7,166.1 480.4,168.3 482.4,168.3 483.6,170.1 485.8,170.6 486.1,166.8 488.7,167.6 489.9,167.1 491.5,169.1 489.6,171.4 490.1,174 489.5,176.8 490.1,180.1 493.5,181.4 496.5,185.2 499.7,188.4 502.7,191 504.2,194.1 503.6,195.8 505.2,197.9 507,198.6 508.4,202.2 509.4,205.9 508.5,206.8 509.1,212.1 509.7,218.6 509.8,224.7 508.1,230.1 506.1,235.1 503.5,236.7 502.6,239.2 501.2,238.1 500.5,240.8 497.5,244.4 494.8,246 495.2,251.1 493.7,251.8 492,248.8 492.2,246.8 487.9,246.5 486.8,247.6 483.9,252.6 482.4,257.6 482.5,261 486,265.2 490.3,270.4 493.6,272.5 496.2,275.6 499.2,283.7 500.2,292 498.1,295.8 494.9,299.8 492.8,304.3 489.3,309.7 487.8,307.1 488.3,303.7 485.5,301.7 482.6,301.7 481,299.6 478.6,295.2 475.2,293.8 472.3,294.6 472.2,290.8 469.2,291.5 469.6,296.7 468.6,303.9 467.9,308.3 468.5,311.6 470.9,311.2 472.7,315.1 473.7,319 475.9,321.2 478.1,321.3 480.1,323.2 480.9,323.5 483.2,325.8 484.8,328.5 485.1,331.6 484.9,333.8 485.3,335.3 485.6,337.9 486.9,338.9 488.3,342.6 488.3,344.2 485.9,345.1 482.6,342.5 478.3,339.8 477.8,337.6 475.6,334.9 475,331.2 473.5,329 473.7,325.5 472.8,323.8 471.2,322.3 470.4,320.1 468.3,317.9 466.3,316.1 465.9,318.9 465,316.5 465.1,313.5 465.8,308.8 465,305.5 465.7,301.7 464.1,299.2 463.7,294 461.9,291.9 459.9,286.6 458.3,280.9 456,277.3 454.1,280.1 450.5,284.2 448.3,284.2 445.8,283.5 446.2,277.5 444.6,273.3 440.7,268.5 440.9,266.7 438.6,266.5 435.2,263.2 433.7,260.9 433,258.6 431.9,256.5 429.8,254.1 426.3,254.4 427,256.3 426.3,259 424.6,258.3 424.2,259.2 423,258.9 421.4,258.7 421.2,260.5 418.6,260.8 414,262.4 414.8,265.8 413.1,268.9 407.8,272.7 404,278.7 401.3,282 397.5,285.5 397.7,287.7 395.8,289.1 392.2,291.1 390.2,291.6 389.2,295.3 390.7,301.3 391.2,305.2 389.7,309.8 390.2,317.8 388,318.2 386.2,321.9 387.6,323.4 383.6,325 382.3,328.4 380.6,329.8 376.2,325.8 373.8,319.4 371.9,314.8 370.2,312.7 367.6,308.4 366.1,302.6 365.2,299.7 360.7,293.5 358.3,284.5 356.6,278.5 356.2,272.9 355,268.5 348.9,271.7 345.8,271.3 339.9,265.9 341.8,264.1 340.4,262.3 335.2,258.5 332,257.5 330.5,254.2 327.1,250.8 319.3,251.8 312.4,252 306.4,252.7 298.4,251.3 293.7,250.3 289,249.6 287.3,243.9 285.3,243.1 282.1,243.9 277.7,246 272.7,244.3 268.7,240.7 264.8,239.2 262.4,234.8 259.9,228.5 257.7,229.2 255.3,227.6 253.6,229.3 251.3,228.9 251.9,231 251.4,232 252.4,235.5 253.6,239.5 255.5,240.7 256.1,242.3 258.7,244.4 258.8,246.3 258.3,247.8 258.7,249.4 259.8,250.7 260.3,252.3 260.8,253.4 260.8,250.1 262.1,247.7 263.3,247.2 264.4,248.7 264.4,251.4 263.3,254.1 263.9,255.9 264.7,255.7 264.8,257 268.2,256.4 271.7,256.6 274.3,256.9 277.3,253.8 280.6,250.9 283.4,248.1 284.6,246.5 285.2,246.9 284.7,248.8 284.1,249.7 284.6,253.3 286.5,256.5 288.8,258.3 292,258.9 294.5,259.8 296.4,262.5 297.6,264 299.2,264.6 299.2,265.6 297.6,268.4 296.9,269.7 295,271.2 293.3,274.4 291.3,274.2 290.4,275.3 289.7,277.7 290.2,280.8 289.7,281.4 287.7,281.3 284.9,283 284.4,285.3 283.3,286.3 280.6,286.2 278.8,287.4 278.7,289.3 276.6,290.5 274.1,290 271,291.5 269,291.7 265.7,292.9 264.7,295 264.6,296.6 260,298.4 252.7,300.3 248.6,303.4 246.6,303.5 245.3,303.2 242.5,305 239.6,305.7 235.9,305.7 234.8,305.9 233.7,307.1 232.5,307.4 231.8,308.5 229.6,308.3 228.1,308.8 225.1,308.3 224.1,305.5 224.4,302.9 223.8,301.5 223.2,297.9 222.1,295.9 223,295.8 222.7,293.6 223.3,292.7 223.3,290.6 222.9,288.6 221.7,287.1 221.6,285.2 219.5,283.3 217.7,279.2 216.9,275.3 214.3,271.8 212.6,270.8 210.4,266.1 210.4,262.9 210.9,260.1 209.4,254.8 207.8,252.8 205.8,251.6 204.9,248.8 205.3,247.8 204.6,245.3 203.6,244.1 202.7,240.6 201.1,236.6 199.8,233.3 197.9,233 199,230.6 199.5,229.1 200.4,227.3 200.4,226.7 199,228.3 197.4,231.7 195.9,233.9 194.9,234.6 193.9,232.9 192.7,230.7 191.6,223.9 191.1,224.3 191.5,229.2 192.8,234.1 194.1,241.5 195.1,244.2 195.8,246.9 198.4,252.4 197.5,253.2 197.1,256.2 201.1,260.9 201.6,261.9 202.3,266.6 201.3,267.3 201.2,272.2 202,277.9 203.4,279.2 205.5,281.2 207.3,286.9 208.1,291.3 210.2,293.8 215.7,298.8 217.9,301.7 220,304.6 221.3,306.3 223.3,307.9 224.3,309.4 224,311.4 221.5,312.3 223.3,313.7 224.7,314.7 225.4,316.7 227.3,318.8 229.5,319 233.8,318.1 238.7,317.8 242.8,316.6 245,316.4 246.7,315.7 249.3,315.6 250.7,315.6 252.8,315 255.3,314.7 257.5,313.1 259.2,313.2 259.3,314.5 258.8,317.2 258.7,319.7 257.7,321.3 256.3,326.4 253.9,331.5 250.9,337.3 246.8,343.9 242.8,348.9 237.3,354.9 232.7,358.3 225.9,362.4 221.7,365.5 216.8,370.6 215.8,373 214.7,373.9 211.6,375.5 210.6,377.2 208.9,377.4 208.3,380.5 207,382.2 206.2,385.1 204.5,386.4 202.6,391.6 203,394.1 205.9,396 206,397.2 205,399.7 205.3,401 205.1,403.1 206.8,405.9 208.9,410.4 210.5,411.4 211.4,413.4 211.5,417.6 212.3,421.4 213.1,427.9 214,430 213,432.8 211.7,435.5 209.2,437.7 205.6,438.8 201.1,440.3 197.1,444.1 195.7,444.6 193.3,447.1 191.8,447.8 191.9,450.5 194.4,453.7 195.6,456 195.8,457.1 196.5,457 197.1,460.7 196.8,462.4 197.9,463.1 197.6,464.6 196.3,465.7 193.4,466.6 189.3,468 188,469.1 188.7,470.7 189.7,471 189.9,472.9 189.7,475.3 190.1,478.2 189.6,479.6 187.7,481 187.1,481.5 186.2,483 185.8,484.6 184.6,486.7 182,489.5 180.4,491.1 178.5,492.2 175.6,492.9 174.1,492.7 174,493.6 171.9,492.7 170.6,493.1 166.8,491.8 165.1,491.8 163.7,491.4 161.2,492 158.9,492 157.7,492.8 156.4,492.6 154.5,491.2 153.5,490.9 151.5,489.2 151.6,489.6 150.7,488.6 149.7,486.7 147.6,484.2 148.2,483.9 146.9,481.3 143.4,477.6 140.5,474.3 140.5,474.3 136.3,469.2 132.9,465.9 130.7,462.9 128.5,459.2 126.8,456.3 123.6,450.2 121.9,445.6 120.8,443.3 119.1,441.4 116.5,437.7 113.5,432.5 112.2,429.8 108.6,425.2 107.6,422 106.7,419.3 106.3,415.8 106.5,412.3 106.2,410.5 106.5,407 106.9,405.5 108.2,403.2 108.9,401.6 108.7,398.5 108.2,396 107,394.2 105.8,391.3 104.7,388.5 104.7,387.6 105.5,386.2 104.1,381.7 103.1,378.5 101.3,375.3 101.5,374.5 100.9,373 99.9,369.4 97,363.9 93.7,358.4 91.5,354.1 89.6,348.8 89.7,347.4 90.3,346.1 91,343 91.7,339.8 91.1,339 92.3,334.2 92.8,330.7 91.8,327.3 90.5,326.1 90,323.8 89.3,322.9 89.4,321.7 86.3,322.3 85.3,321.7 84.1,322.4 81.9,321.5 80.6,318.1 80,314.4 78.4,310.7 76.4,310 74.1,309.1 72,308.8 69.9,308.9 66,310 64.6,311 62.5,311.3 60.6,309.1 59.7,308.6 58.3,307 57,306.3 54.6,305.8 53.2,306.3 51.2,306.9 50.9,306.6 50.4,306.3 48.8,303 47.6,298.5 46.5,295 45.8,291.3 45.5,290.6 44.7,288 44.3,284.9 44.2,283 44.6,279.5 44.4,276.3 44.2,274.1 44,273.2 43.8,272 44.1,269.9 44.1,268.7 43.9,267.7 43.6,265.1 43.2,264.4 43.2,262.8 43.4,262.1 43.2,260.8 43.4,259.8 44,256.1 44.6,254.3 45,250.3 44.9,248.2 45.6,247.8 46.9,245.3 47.8,243.2 48.4,240.7 49.4,238.9 50.8,234.8 52.2,230.4 52.8,228 53.7,226 54.2,223.6 54.3,221.1 55.1,219.4 55.9,217.4 56.8,216.6 58,214.8 58.5,213.2 60.2,210.6 62,208.4 62.6,208.1 64,205.9 65.1,203.7 66.7,201.4 68.2,200.6 71.1,197 72.6,195.8 74,196.3 76.5,194.3 77.8,193.7 80.7,191 83.2,185.6 85.7,182.5 87.1,180.4 89.7,178.3 92.2,177.4 94.4,176.4 97.9,172.9 100,170.7 101.1,171.4 101,173.6 102.8,174.2 104.1,176 104.8,176.5 107.9,175.1 110.3,175.3 112.5,174.2 115.1,173.8 119,174.5 122.7,175.5 123.4,176.5 126.4,175.6 128.8,176.4 129.2,177.7 130.9,178 134.4,177.1 135.8,178.1 134.7,180.2 137.5,179.3 137.3,180.1 135,181.8 134,183.7 134.4,185 132.3,188.5 129.6,190.1 129,192.6 130.2,193 130,195.2 130.6,196.2 133.1,198.6 134.4,198.5 136.4,199.8 139.3,202.7 139,206.9 141.3,208.4 144.8,211.2 147.3,214.2 149.2,213.4 151.4,211.7 151.9,208.2 153.6,206.2 156.6,204.7 158.9,204.5 162.8,206.3 163.2,208.4 164.4,208.7 165.2,209.6 168.3,210.7 168.6,212.3 173,213 175.9,214.8 178.9,216.6 180.3,217.6 183.4,216.6 185.2,215.5 188.4,215.6 190.7,216.5 191.1,218.8 192.3,217.5 194.9,218.9 197.7,219.6 199.7,218.7 201.1,217.3 201,217 202.4,215.1 204,211.8 204.7,210.8 204.9,210.7 207,207.3 209.5,204.4 209.6,204.3 210.2,200.9 211.5,199.2 210.7,197.1 212.4,195.6 210.2,195.7 207.6,194.4 204.6,196.6 199.3,196.4 197.3,193.7 193.8,193.1 192.4,194.7 190,194.9 187.6,192.1 184.1,191.6 183.7,187.1 182.3,184.4 185.1,181.4 184,179.1 188.9,175.7 193.6,176.3 196.1,173.3 201.8,174.7 206.5,172.6 210.5,171.9 215.8,172.5 220.5,176 224.8,178.1 228.8,177.9 231.6,178.5 236,176.7 237,175 236.8,172.1 235.3,170.4 233.6,169.7 232.8,168.4 229.7,164.5 226.6,162.6 224.7,160 227.2,159.6 230.8,156.5 229.6,154.8 234.5,153.6 234.7,152.8 231.8,153.1 229.3,153.2 226.9,154.2 224.1,154.1 221,155.3 220.3,157.8 221.4,158.9 224.6,159 223.5,160.4 220,160.7 215,162.5 213.7,161.5 215,159.7 212.2,158.1 213,157.4 216.3,156.5 215.8,155.4 211.7,153.8 212.2,152.4 209.3,152.5 207.4,154.5 203.9,157 203.5,158.1 201.8,158.7 201.1,158.2 198.2,162.9 196,164.3 193.7,167 193.7,169.5 193.4,171.1 195.5,172.9 194.5,173.8 190.9,173.4 189.1,174.5 185.7,176.3 185.5,174.2 185.9,173.4 184.2,172.9 182.8,172.3 178.8,172.7 179.8,175.4 178.1,175.8 176.5,175.5 175.9,173.1 174.9,173.9 174.5,176.4 175.1,178.7 173.6,179.4 174.4,181.6 175.4,183.1 174.5,185.5 172.2,183.8 172.2,186.1 170.1,186.2 169.7,190.2 167.7,189.8 166,187.5 166.3,183.9 167,181 166.8,178.9 166.4,176.2 166.7,175 166.4,174.6 166.8,173.7 165.9,172 166.6,170 168.2,167.3 169.2,166.1 169.1,165.4 168.7,165 168.6,163.5 167.9,162.4 166.3,160.4 165.6,158.6 164,156.9 163.7,153.5 164.3,153.4 164.2,151.5 165,150.2 163.8,149.2 162.1,150.6 162.2,149.2 163.1,147.9 163.2,147.8 163.9,147.6 162.5,146.6 159.8,147.4 158.7,149.3 157.7,150.3 157.2,152.5 158.2,155 157.5,158.6 158.4,162.5 160.3,163 160.5,164 159.3,164.6 160.9,166.6 162.1,168.3 163.3,170.9 163.2,171.8 162,173.1 161.5,170.8 159.5,169.6 157.1,172 158.2,174 156.8,176 155.6,176 152.4,179.2 151.2,179.2 151.8,178 153.4,175.9 154.5,175.2 154.6,172.5 154.9,170.3 154.1,169.5 154.3,167.6 153.1,166.4 152.9,164.5 151.3,163.8 150.4,161.5 149.9,158.3 149.7,155.6 151.5,151.6 150.7,150.8 149.8,149 148.4,149.2 146,150.6 145,150.6 141.7,152.1 138.4,149.6 134.8,149.8 133,152 131.5,154.2 128,156 125,155.9 124,157.1 121.4,158.7 118.6,161.6 117.8,164.1 115.6,165.4 113.6,167.8 111.7,168 108.5,170.4 106.3,169.4 104.8,168.5 102.9,169.3 101.3,170.5 100.7,169.7 101,168 102.1,165.5 101.1,164.1 99.9,164.7 99.5,163.7 98.5,163.6 100.8,160.7 102.3,158.3 102,157.5 102.7,155.9 104.6,153.5 106.2,152.4 107.4,151 109.4,148.9 110.6,147.3 111.3,145.8 112.3,144.5 114.5,141.9 115.2,140 119.2,138.6 120.2,140.2 122.1,141.3 123.2,142.8 124.6,143.2 127,144.6 129.6,142.8 135.7,135.7 137.3,131.2 137.7,128.9 136.8,126.5 139,123.9 141.4,124.1 143,126.2 146.1,122.1 146.2,124.2 152.2,123.1 155.2,120.6 157.2,120.5 159.1,120.3 160.7,119.7 166.7,115.4 170.2,114.8 171.5,115.4 172.5,114.8 174.1,115.1 173.7,115.9 176.4,114.7 177.1,113.3 178.7,111.5 179.7,109.4 182.8,106.2 183.9,105.4 185.3,104.6 186.9,104.9 188.3,104.2 190.5,103.8 188.9,105.3 187.4,106.2 186.8,107.2 187.3,107.9 185.7,109 185.5,108.5 182.2,110.4 181.2,112.1 180.1,113.4 181.2,114.7 180.1,115.9 182.5,115.8 184.4,115.2 185.4,117.1 185.4,118.4 187.5,117.8 191.8,117 195.2,116.5 196.8,117.5 196.4,118.4 198.3,118.9 199.9,117.5 203.6,117 205.2,114.1 207.1,111.6 209.6,109.7 212.3,109 212.2,111.8 213.9,112 216.1,109.6 217.7,107.7 216.6,108 216.2,106.6 217.4,104.7 220.5,104.3 223.4,104.3 225.1,105.2 227.3,105.4 230.8,104 229.7,102.2 226,101.9 221.7,102.4 218.1,102.5 218.4,100.6 217.5,99.2 220.4,96.3 221.9,93.4 224.3,91.9 227.4,90.4 233.9,88 235.5,87.6 236.3,86.4 235.3,84.7 231.9,85 228.6,86.6 227.2,88.3 222.5,90.1 217,91.9 211.9,95.7 211.1,98.1 211.3,100.2 206.6,103.3 204.1,103.6 198.8,108.7 195.2,111.5 193.2,110.6 189.9,112.9 187.7,112.5 189.8,109.3 191.7,105.2 194.7,100.5 195.5,98.3 188.8,100.9 186.1,100.9 185.7,98.7 188.7,95.3 196.1,88.6 199.4,87.3 205.6,86.2 211.6,84.2 218.5,81.2 227.6,77.1 232,75.7 239.1,73.5 243.1,73 245,73.5 249.1,71.9 251.3,72.4 254.1,72.3 256.6,74.7 254.2,75.2 254.4,77 256.6,76.3 257.8,78.2 261.5,79.3 265.8,83 266.4,84.5 265.6,86.4 262.9,87.7 259.5,88.2 253.2,85.1 251.7,85.3 253.1,87.8 250.6,92.1 252.5,93.3 253.5,94.2 254.6,92.8 254.2,91.4 256,90.4 259.5,92.7 261.5,92.2 261.3,89.9 266.9,87.4 268.4,87.7 269.7,88.9 271.6,86.9 270.8,85.1 272.4,83.5 271.9,81.7 276.2,82.9 276.6,84.6 274.3,84.8 273.7,86.3 274.8,87.4 277.8,87 278.8,85.2 282.8,84 289.3,81.8 290.6,82 288.6,83.6 290.7,84 292.1,83 295.4,83 298,81.9 299.9,83.6 301.8,81.7 300,80.1 300.9,79.2 305.8,80 308.2,80.8 314.9,83.8 315.7,82.3 313.7,80.9 313.5,80.3 311.4,80.1 311.7,78.8 310.4,76.8 310.2,75.9 312.4,73.5 312.7,71.2 313.6,70.6 317.4,71.1 318.3,72.5 317.7,74.6 318.9,75.4 320.1,77.2 321,80.9 323.5,82.5 323.4,84.4 321.2,88.7 323.5,89 323.9,87.9 325.6,87 325.6,85.6 326.5,84.1 324.9,82.6 325,80.7 323.1,80.6 322.1,79.2 322.3,76.4 319.5,74.4 321.3,72.5 320.2,70.8 320.8,70.7 322.2,72 322.8,74.5 324.6,74.8 323,73.1 324.8,71.9 327.6,71.5 331,72.7 328.4,70.7 326.6,68.2 328.4,67.5 331.4,67.3 333.7,66.6 331.7,65.6 331.7,63.9 332.8,63.7 333.7,62.3 336,61.6 335.7,61 337.9,60.4 339.2,60.7 339.8,59.2 341.4,58.9 340.3,58 339.7,57 340.2,55.8 342.5,56.1 342.3,56.8 344.5,56.7 346.3,57.5 346.2,56.9 348.3,56.3 351.6,56.6 353.5,57.1 355.2,58.1 355.5,59 355.5,60.7 355.9,61.5 357.4,61.4 359.5,61.6 359.5,60.9 362.3,62.1 361.7,61.4 362.3,60.7 365.2,60.1 367.2,60.9 370.6,59.9 367.5,58.4 369.5,58.1 370.3,57.6 373.3,58 376.3,59 377.7,59.9 381.6,60.9 384.2,61.1 380.2,58.8 382.8,59 382.3,57.9 384.3,57.7 383.3,57 384.4,56.6 380.1,55.4 378.5,54.2 382.5,51.9 385.2,52.4 388.5,52.5 387.1,50.6 387.4,50 389,50.2 392.2,51.3 393.1,51.2 391.8,50.3 391,49.6 391,49 389.7,48.1 392.4,48.5 390.4,47.6 388.2,47.2 386.1,46.5 385.3,45.5 383.7,44.7 383.4,44.1 383.9,44Z"/>
  <path d="M261.7,179.5 263,182.6 264.7,182.9 265.6,184.1 262.7,184.3 261.6,187.5 260.8,189 259.3,189.9 259.2,192.1 259.9,195.3 263.3,196.4 265.6,198.7 270.9,199.7 276.8,198.7 277.2,197.7 276.8,194.6 277.6,190.1 274.9,188.5 276.1,185.6 273.7,185.3 274.8,181.8 278.1,182.9 281.3,181.6 278.9,179 278.1,176.6 275.2,177.6 274.6,180.7 273.7,177.9 273.6,176.9 274.7,175.1 274.1,173.7 270.3,172.1 269.3,168.3 267.6,167.2 267.6,165.9 270.8,166.4 271.3,163.4 274.2,162.9 277,163.6 278,159.7 277.6,157.2 274.4,157.2 271.8,156.2 267.9,157.8 264.8,158.5 262.9,160.8 259.7,161.3 255.7,165.3 258,169.3 257.2,172.1 260.2,177.2 261.7,179.5Z"/>
  <path d="M374.1,41.6 376.8,42.2 377.8,42.6 376.7,42.4 374.1,41.6Z"/>
  <path d="M374.1,41.6 373.9,41.5 373.2,41.2 373.2,41 373.8,41.1 375.5,41.7 376.8,42.2 374.1,41.6Z"/>
  <path d="M245.8,35.8 244.9,35.9 246,35.6 247.2,35.4 248,35.2 248.4,35.1 251.1,34.6 252.1,34.5 251.8,34.6 249.2,35.1 245.8,35.8Z"/>
  <path d="M256.9,33.5 254.4,33.9 255.4,33.8 253.8,34.1 249.1,34.9 247.4,35.2 246.1,35.5 246.2,35.6 242.4,36.4 239.5,37 237.9,37.4 236.8,37.7 233.6,38.5 229.8,39.5 227.6,40.1 223.3,41.3 223.6,41.1 218.9,42.6 216.5,43.4 211.7,45 209.9,45.7 207.6,46.4 205.3,47.2 208.2,46.1 213.3,44.3 260.2,33 259.9,33 257.7,33.4 256.9,33.5Z"/>
  <path d="M377.5,52.6 377.3,53.1 376.3,53.6 376.1,53.6 374.5,52.7 374.4,52.2 376.3,52.2 377.5,52.6Z"/>
  <path d="M268.9,31.8 268.2,31.9 265.8,32.2 263,32.6Z"/>
  <path d="M369.5,47.8 371.3,48.6 370.8,49 368.9,49.1 367.5,48.6 368.3,48.2 369.5,47.8Z"/>
  <path d="M268.9,31.9 268.7,31.9 270.5,31.7 272.4,31.5 272.6,31.5 271.6,31.7 269.9,31.8 268.9,31.9Z"/>
  <path d="M367.1,48.9 370.3,50.1 369.6,51.2 370.3,52.1 366.9,51.8 364,50.7 363.5,50 364.2,49.3 367.1,48.9Z"/>
  <path d="M277.3,31.2 275.7,31.3 274.8,31.3 274,31.3 275.7,31.1 277.2,31 278.1,31 279.8,30.8 280.9,30.8 279.7,30.9 278.7,31.1 277.1,31.2 277.3,31.2Z"/>
  <path d="M286.8,30.4 286.1,30.4 285.2,30.5 284,30.6 283.3,30.6 283.5,30.5 287.4,30.3 290.1,30.2 295.5,30 297.3,30 295.9,30.1 294.9,30.1 291.7,30.2 289.2,30.2 287.2,30.3 289.5,30.3 288.8,30.4 287.7,30.4 286.8,30.4Z"/>
  <path d="M296.2,76.9 295.2,77.1 290.2,76.6 290,75.5 287.5,74.7 287.6,73.3 289.2,72.8 289.5,71.4 292.6,69.4 291.5,69 294.9,67 294.7,65.9 297.5,64.7 301.3,63.3 305,62.8 306.7,61.9 308.7,61.6 309.7,62.4 309.1,63.2 305.4,64.4 301.9,65.6 298.1,67.8 295.9,70.2 293.5,72.5 293.5,74.7 296.2,76.9Z"/>
  <path d="M274.2,31.7 272.5,31.8 270.6,32.1 269.1,32.2 268.5,32.2 266.8,32.3 265.6,32.5 264.2,32.7 262.5,32.9 261.5,33.2 259.9,33.5 258.2,33.8 256.1,34.1 254.7,34.3 254.5,34.2 255.4,34 257,33.7 259.5,33.2 261.7,32.8 263.7,32.5 267.3,32.1 268.8,32 270,31.9 271.9,31.8 274.2,31.5 275.9,31.4 276.3,31.5 274.2,31.7Z"/>
  <path d="M296.2,30.3 296.1,30.2 296.8,30.1 297.8,30.1 299.9,30 301.7,30 303.2,30.1 301.2,30.1 299.1,30.3 297.5,30.3 296.2,30.3Z"/>
  <path d="M274.3,31.8 274.6,31.8 276.5,31.6 277.3,31.6 275.4,31.8 274.4,31.8 274.3,31.8Z"/>
  <path d="M290.2,30.5 291.9,30.4 293.5,30.4 292.9,30.5 291.6,30.6 290.1,30.6 290.2,30.5Z"/>
  <path d="M267.2,57 264.3,57.5 263.5,56.8 264.8,56.4 265.3,55.7 267.4,55.6 266.7,56.4 267.2,57Z"/>
  <path d="M290.4,30.8 291.4,30.7 293,30.6 293,30.6 292.3,30.8 291.8,30.8 290.4,30.8Z"/>
  <path d="M277.1,31.7 278.1,31.5 279.2,31.4 280.2,31.5 281,31.5 279.8,31.6 279.2,31.7 277.6,31.7 277.1,31.7Z"/>
  <path d="M281.4,31.3 280.4,31.3 282,31.1 284,31.1 286.1,30.9 285.6,31.1 286.9,31.1 287.4,31.2 285.6,31.3 282.8,31.3 281.4,31.3Z"/>
  <path d="M338.7,54.6 335.9,56.3 333.3,53.6 333.5,53.3 334.1,53.3 337.6,53.9 338.7,54.6Z"/>
  <path d="M267.9,52.7 267.8,54.5 264.9,54.8 262.2,56.1 261,56.3 258.1,57.8 257,57.6 257.4,56.1 259.2,55.6 259.1,54.8 260.8,53 263.1,51.6 265.8,51.4 265,52.1 265.9,52.3 267.2,51.8 268.2,52 267.9,52.7Z"/>
  <path d="M274.5,52.4 274.9,53.3 272.5,54.1 270.1,53.9 268.6,53.2 269.3,52.7 268.5,52.5 269.2,51.6 271.9,51.5 272.1,52.1 273.6,51.7 274.5,52.4Z"/>
  <path d="M293.2,54.1 292,54.3 291.3,54.4 291,54.7 289.9,55 289.3,54.5 290.1,53.9 288.5,53.7 290.1,53.5 291.2,53.5 291.1,54.1 291.8,53.6 292.6,53.3 293.6,53.8 293.2,54.1Z"/>
  <path d="M333.4,54.4 332.2,55 329.4,54.8 327.2,54.3 324.9,53.1 323.5,52.9 323.4,51.5 324.1,50.8 326.7,51.5 330.9,52.8 333.4,54.4Z"/>
  <path d="M273.6,32.9 271.9,33 272.2,32.8 271.8,32.5 273.1,32.2 275.1,32 276.9,32 277.6,32 277.5,32.2 278.9,32 280.4,32 281.8,32.1 282.1,32.3 282.2,32.4 281.6,32.6 282.4,32.6 281,32.8 279,32.7 277.4,32.8 275.8,33 273.6,32.9Z"/>
  <path d="M274.6,35.9 273.4,36.2 272.2,36.4 270.6,36.6 269.5,36.6 268.7,36.2 268.9,35.9 268.4,35.8 267.5,36.1 266.3,35.7 266,35.4 264,35.2 264.6,34.8 264.3,34.7 265.8,34.3 264.5,34.5 264.4,34.4 262.3,34.5 261.8,34.4 262,34.1 261.2,34.1 261.4,33.9 260.6,33.9 259.4,34.2 258.6,34.3 259,33.9 262.1,33.4 264.3,32.9 266,32.6 267.9,32.4 269.2,32.3 268,32.6 270.2,32.5 269.9,32.6 266.6,33 269.3,32.8 271.1,32.6 271.5,32.8 270.7,33 271.4,33.1 273.5,33 275.1,33 273.1,33.4 272.3,33.4 272.4,33.7 274.1,33.5 276.2,33 278.1,33 279.6,33 281,33 281.9,33.1 281.5,33.3 280.9,33.5 280.2,33.7 280.4,34 279.7,34.1 278.4,34.1 279.5,34.3 279.4,34.5 278.9,34.7 277.8,35 277.2,35.1 276.7,35.4 275.6,35.6 274.6,35.9Z"/>
  <path d="M269.6,41.3 266.2,42.7 264.3,42.7 263.9,42.1 263.4,41.3 262.5,41.5 263.1,42 261.6,42.8 263.1,42.9 261.6,43.3 258.8,43.6 260.7,43.7 263.2,44.2 262.9,44.9 261.1,45.4 257.1,45.4 255.9,45.6 254.6,45.1 254.8,45.6 251.3,46.1 248.2,46.6 243.1,47.9 240.4,49 239.9,48.7 238.2,48.6 236.1,49.8 232.4,51 231.7,50.8 228.2,52.4 227.4,51.8 225.8,52.8 224.2,53.2 223.2,52.9 222.9,52.4 220.1,53.9 218.1,54.6 219.7,53.2 218.4,53.4 217.5,54.3 215,55.8 211.5,57.2 210.3,56.8 211.9,55.9 214.3,54.5 211.3,55.7 208.8,56.1 209,57.2 209,57.9 204.7,58.2 201,58.4 199.4,57.7 199.4,57.2 197.8,57.3 193.4,58.5 190.8,58.6 190.7,58.4 190,58.1 189.5,57.8 187.2,58.4 184.3,59.7 181.7,60.6 179.2,61.2 175.8,62.9 172.7,64.2 169.1,65.9 169.6,65.1 173.8,62.7 175.1,61.5 178,60 182.3,57.9 188.5,54.9 191.5,53.6 195.1,52.2 199.8,50.2 202.5,49.4 204.3,48.6 208.3,47.5 208.9,47.7 210.3,47.3 213.4,46.5 212.6,46.5 212.4,46.4 212.4,46.2 214.5,45.4 217.3,44.6 219.2,44.2 218.7,44.5 216.4,45.6 220,44.3 221.9,43.6 222,43.4 223.5,42.9 226.6,42.4 228.5,41.9 231.8,41.1 236.7,40 239,39.4 240.7,39.1 244.6,38.1 246.1,37.6 247.7,36.9 249.1,36.4 251.1,36 254.5,35.5 253.8,36 252.7,36.4 256.4,35.4 259.3,34.9 260.5,34.9 259.9,35.5 259.7,36.1 260.8,36.2 263.5,35.7 264.5,35.8 265.7,36.3 265.5,36.6 267.5,36.5 267.7,36.8 267.4,37.3 266.6,37.7 264.9,37.9 266.7,38.3 264.5,38.7 263.9,39 262.1,39.4 264.9,38.9 266.8,38.8 269,39.1 268.4,39.6 270,39.7 270.2,40.1 269.6,41.3Z"/>
</g>
<!-- Atmospheric shine -->
<circle cx="300" cy="300" r="270" fill="url(#globe-shine)"/>
<!-- Rim highlight -->
<circle cx="300" cy="300" r="270" fill="none" stroke="#fff" stroke-width="2" opacity="0.15"/>
</svg>